<?xml version="1.0" encoding="UTF-8" standalone="no"?>
<svg
   xmlns:dc="http://purl.org/dc/elements/1.1/"
   xmlns:cc="http://creativecommons.org/ns#"
   xmlns:rdf="http://www.w3.org/1999/02/22-rdf-syntax-ns#"
   xmlns:svg="http://www.w3.org/2000/svg"
   xmlns="http://www.w3.org/2000/svg"
   xmlns:sodipodi="http://sodipodi.sourceforge.net/DTD/sodipodi-0.dtd"
   xmlns:inkscape="http://www.inkscape.org/namespaces/inkscape"
   width="276.82379mm"
   height="156.00262mm"
   viewBox="0 0 276.82379 156.00262"
   version="1.1"
   id="svg8"
   sodipodi:docname="csa-intro.svg"
   inkscape:version="1.0.2 (e86c870879, 2021-01-15)"
   inkscape:export-filename="/home/dknite/work/slides/llvm-dev-mtg-2021/imgs/csa-intro.png"
   inkscape:export-xdpi="200"
   inkscape:export-ydpi="200">
  <defs
     id="defs2">
    <rect
       x="224.33861"
       y="-60.920033"
       width="6.7890439"
       height="26.936552"
       id="rect909" />
  </defs>
  <sodipodi:namedview
     id="base"
     pagecolor="#ffffff"
     bordercolor="#666666"
     borderopacity="1.0"
     inkscape:pageopacity="1"
     inkscape:pageshadow="2"
     inkscape:zoom="0.9899495"
     inkscape:cx="601.32612"
     inkscape:cy="326.83483"
     inkscape:document-units="mm"
     inkscape:current-layer="layer1"
     inkscape:document-rotation="0"
     showgrid="false"
     inkscape:window-width="1920"
     inkscape:window-height="965"
     inkscape:window-x="0"
     inkscape:window-y="27"
     inkscape:window-maximized="1"
     inkscape:snap-nodes="true"
     fit-margin-top="5"
     fit-margin-left="5"
     fit-margin-right="5"
     fit-margin-bottom="5" />
  <metadata
     id="metadata5">
    <rdf:RDF>
      <cc:Work
         rdf:about="">
        <dc:format>image/svg+xml</dc:format>
        <dc:type
           rdf:resource="http://purl.org/dc/dcmitype/StillImage" />
        <dc:title></dc:title>
      </cc:Work>
    </rdf:RDF>
  </metadata>
  <g
     inkscape:label="Layer 1"
     inkscape:groupmode="layer"
     id="layer1"
     transform="translate(-5.7116131,-13.021995)">
    <ellipse
       style="fill:none;stroke:#000000;stroke-width:0.7;stroke-linecap:square;stroke-miterlimit:4;stroke-dasharray:none"
       id="path833"
       ry="11.728263"
       rx="22.855143"
       cy="100.84551"
       cx="33.916756" />
    <rect
       style="fill:none;stroke:#1435ca;stroke-width:1;stroke-linecap:square;stroke-miterlimit:4;stroke-dasharray:none;stroke-opacity:1"
       id="rect835"
       width="205.84552"
       height="132.95601"
       x="71.18988"
       y="30.568613" />
    <path
       style="fill:none;stroke:#000000;stroke-width:0.7;stroke-linecap:butt;stroke-linejoin:miter;stroke-miterlimit:4;stroke-dasharray:none;stroke-opacity:1"
       d="m 56.858304,99.084417 c 0,0 24.984326,3.803773 34.526976,-10.344843 9.54265,-14.148612 10.27177,-32.218881 30.16248,-32.434553 19.89072,-0.21567 101.00488,-0.648433 101.00488,-0.648433"
       id="path841"
       sodipodi:nodetypes="cssc" />
    <path
       style="fill:none;stroke:#000000;stroke-width:0.7;stroke-linecap:butt;stroke-linejoin:miter;stroke-miterlimit:4;stroke-dasharray:none;stroke-opacity:1"
       d="m 56.60048,102.63187 c 0,0 24.984326,-3.803778 34.526976,10.34484 9.542654,14.14861 10.271774,32.21888 30.162484,32.43455 19.89072,0.21567 123.12059,0.64844 123.12059,0.64844"
       id="path841-3" />
    <path
       style="fill:none;stroke:#000000;stroke-width:0.7;stroke-linecap:butt;stroke-linejoin:miter;stroke-miterlimit:4;stroke-dasharray:none;stroke-opacity:1"
       d="m 54.93495,100.39168 c -0.03993,0.0557 37.558811,1.4607 53.35869,-12.575002 14.8662,-13.20628 20.23532,-16.311916 35.78149,-16.467467 15.54616,-0.155551 77.70957,-0.03082 77.70957,-0.03082"
       id="path881"
       sodipodi:nodetypes="cssc" />
    <path
       style="fill:none;stroke:#000000;stroke-width:0.7;stroke-linecap:butt;stroke-linejoin:miter;stroke-miterlimit:4;stroke-dasharray:none;stroke-opacity:1"
       d="m 55.29112,101.3759 c -0.03993,-0.0557 37.558811,-1.460697 53.35868,12.575 14.8662,13.20628 20.23532,16.31191 35.78149,16.46746 15.54616,0.15556 25.42879,0.0308 25.42879,0.0308"
       id="path881-6"
       sodipodi:nodetypes="cssc" />
    <text
       xml:space="preserve"
       style="font-style:normal;font-variant:normal;font-weight:normal;font-stretch:normal;font-size:10.5833px;line-height:1.25;font-family:Ubuntu;-inkscape-font-specification:Ubuntu;stroke-width:0.264583"
       x="17.547638"
       y="102.98069"
       id="text905"><tspan
         sodipodi:role="line"
         id="tspan903"
         x="17.547638"
         y="102.98069"
         style="font-style:normal;font-variant:normal;font-weight:normal;font-stretch:normal;font-size:8.46667px;font-family:Ubuntu;-inkscape-font-specification:Ubuntu;stroke-width:0.264583">Program</tspan></text>
    <text
       xml:space="preserve"
       id="text907"
       style="font-size:10.5833px;line-height:1.25;font-family:'AR PL UMing TW MBE';-inkscape-font-specification:'AR PL UMing TW MBE';white-space:pre;shape-inside:url(#rect909);" />
    <path
       id="path971"
       style="fill:none;stroke:#fb4934;stroke-width:0.7;stroke-linecap:butt;stroke-linejoin:miter;stroke-miterlimit:4;stroke-dasharray:none;stroke-opacity:1"
       d="m 224.77188,59.186886 c 2.66206,-2.772962 5.32411,-5.545924 7.98617,-8.318886 m -8.34649,0.04354 c 2.75074,2.770433 5.50149,5.540867 8.25224,8.3113 m 1.91786,-4.272908 c 0.043,2.635425 -1.86729,5.136533 -4.42115,5.788543 -2.51446,0.7291 -5.41036,-0.433046 -6.72228,-2.699031 -1.38418,-2.222543 -1.05023,-5.325022 0.77482,-7.202327 1.76391,-1.934856 4.84063,-2.455159 7.14255,-1.207457 1.95741,0.999173 3.24502,3.122164 3.22606,5.320272 z" />
    <path
       id="path971-3"
       style="fill:none;stroke:#fb4934;stroke-width:0.7;stroke-linecap:butt;stroke-linejoin:miter;stroke-miterlimit:4;stroke-dasharray:none;stroke-opacity:1"
       d="m 172.38938,134.16897 c 2.66206,-2.77297 5.32411,-5.54593 7.98617,-8.31889 m -8.34649,0.0435 c 2.75074,2.77043 5.50149,5.54087 8.25224,8.3113 m 1.91786,-4.27291 c 0.043,2.63543 -1.86729,5.13653 -4.42115,5.78854 -2.51446,0.7291 -5.41036,-0.43304 -6.72228,-2.69903 -1.38418,-2.22254 -1.05023,-5.32502 0.77482,-7.20232 1.76391,-1.93486 4.84063,-2.45516 7.14255,-1.20746 1.95741,0.99917 3.24502,3.12216 3.22606,5.32027 z" />
    <path
       id="path971-8"
       style="fill:none;stroke:#fabd2f;stroke-width:0.7;stroke-linecap:butt;stroke-linejoin:miter;stroke-miterlimit:4;stroke-dasharray:none;stroke-opacity:1"
       d="m 224.33458,75.397903 c 2.66206,-2.772962 5.32411,-5.545924 7.98617,-8.318886 m -8.34649,0.04354 c 2.75074,2.770433 5.50149,5.540867 8.25224,8.3113 m 1.91786,-4.272908 c 0.043,2.635425 -1.86729,5.136533 -4.42115,5.788543 -2.51446,0.7291 -5.41036,-0.433046 -6.72228,-2.699031 -1.38418,-2.222543 -1.05023,-5.325022 0.77482,-7.202327 1.76391,-1.934856 4.84063,-2.455159 7.14255,-1.207457 1.95741,0.999173 3.24502,3.122164 3.22606,5.320272 z" />
    <path
       style="fill:none;stroke:#000000;stroke-width:0.7;stroke-linecap:butt;stroke-linejoin:miter;stroke-miterlimit:4;stroke-dasharray:none;stroke-dashoffset:0;stroke-opacity:1"
       d="m 182.10523,130.3798 39.21834,-0.0143"
       id="path1017" />
    <path
       id="path971-8-6"
       style="fill:none;stroke:#fabd2f;stroke-width:0.7;stroke-linecap:butt;stroke-linejoin:miter;stroke-miterlimit:4;stroke-dasharray:2.1, 0.7;stroke-dashoffset:0;stroke-opacity:1"
       d="m 224.34177,134.29407 c 2.66206,-2.77296 5.32411,-5.54592 7.98617,-8.31888 m -8.34649,0.0435 c 2.75074,2.77043 5.50149,5.54086 8.25224,8.3113 m 1.91786,-4.27291 c 0.043,2.63542 -1.86729,5.13653 -4.42115,5.78854 -2.51446,0.7291 -5.41036,-0.43304 -6.72228,-2.69903 -1.38418,-2.22254 -1.05023,-5.32502 0.77482,-7.20233 1.76391,-1.93485 4.84063,-2.45516 7.14255,-1.20745 1.95741,0.99917 3.24502,3.12216 3.22606,5.32027 z" />
    <text
       xml:space="preserve"
       style="font-style:normal;font-variant:normal;font-weight:normal;font-stretch:normal;font-size:10.5833px;line-height:1.25;font-family:Ubuntu;-inkscape-font-specification:Ubuntu;stroke-width:0.264583"
       x="237.14757"
       y="57.080441"
       id="text905-0"><tspan
         sodipodi:role="line"
         id="tspan903-8"
         x="237.14757"
         y="57.080441"
         style="font-style:normal;font-variant:normal;font-weight:normal;font-stretch:normal;font-size:6.35px;font-family:Ubuntu;-inkscape-font-specification:Ubuntu;fill:#fb4934;fill-opacity:1;stroke-width:0.264583">Bug</tspan></text>
    <text
       xml:space="preserve"
       style="font-style:normal;font-variant:normal;font-weight:normal;font-stretch:normal;font-size:10.5833px;line-height:1.25;font-family:Ubuntu;-inkscape-font-specification:Ubuntu;stroke-width:0.264583"
       x="236.78104"
       y="72.908524"
       id="text905-0-9"><tspan
         sodipodi:role="line"
         x="236.78104"
         y="72.908524"
         style="font-style:normal;font-variant:normal;font-weight:normal;font-stretch:normal;font-size:6.35px;font-family:Ubuntu;-inkscape-font-specification:Ubuntu;fill:#fabd2f;fill-opacity:1;stroke-width:0.264583"
         id="tspan1087">Warning</tspan></text>
    <text
       xml:space="preserve"
       style="font-style:normal;font-variant:normal;font-weight:normal;font-stretch:normal;font-size:10.5833px;line-height:1.25;font-family:Ubuntu;-inkscape-font-specification:Ubuntu;stroke-width:0.264583"
       x="184.28825"
       y="126.38429"
       id="text905-0-2"><tspan
         sodipodi:role="line"
         id="tspan903-8-3"
         x="184.28825"
         y="126.38429"
         style="font-style:normal;font-variant:normal;font-weight:normal;font-stretch:normal;font-size:6.35px;font-family:Ubuntu;-inkscape-font-specification:Ubuntu;fill:#fb4934;fill-opacity:1;stroke-width:0.264583">Bug</tspan></text>
    <text
       xml:space="preserve"
       style="font-style:normal;font-variant:normal;font-weight:normal;font-stretch:normal;font-size:10.5833px;line-height:0;font-family:Ubuntu;-inkscape-font-specification:Ubuntu;stroke-width:0.264583"
       x="252.85056"
       y="128.00157"
       id="text905-0-9-1"><tspan
         sodipodi:role="line"
         x="252.85056"
         y="128.00157"
         style="font-style:normal;font-variant:normal;font-weight:normal;font-stretch:normal;font-size:6.35px;line-height:1.1;font-family:Ubuntu;-inkscape-font-specification:Ubuntu;text-align:center;text-anchor:middle;fill:#fabd2f;fill-opacity:1;stroke-width:0.264583"
         id="tspan1087-8">Suppressed</tspan><tspan
         sodipodi:role="line"
         x="252.85056"
         y="134.98657"
         style="font-style:normal;font-variant:normal;font-weight:normal;font-stretch:normal;font-size:6.35px;line-height:1.1;font-family:Ubuntu;-inkscape-font-specification:Ubuntu;text-align:center;text-anchor:middle;fill:#fabd2f;fill-opacity:1;stroke-width:0.264583"
         id="tspan1139">Warning</tspan></text>
    <text
       xml:space="preserve"
       style="font-size:10.5833px;line-height:1.25;font-family:'AR PL UMing TW MBE';-inkscape-font-specification:'AR PL UMing TW MBE';stroke-width:0.264583"
       x="151.8726"
       y="21.252953"
       id="text1143"><tspan
         sodipodi:role="line"
         id="tspan1141"
         x="151.8726"
         y="21.252953"
         style="stroke-width:0.264583" /></text>
    <text
       xml:space="preserve"
       style="font-style:normal;font-variant:normal;font-weight:normal;font-stretch:normal;font-size:10.5833px;line-height:1.25;font-family:Ubuntu;-inkscape-font-specification:Ubuntu;stroke-width:0.264583"
       x="162.9156"
       y="27.026295"
       id="text905-6"><tspan
         sodipodi:role="line"
         id="tspan903-0"
         x="162.9156"
         y="27.026295"
         style="font-style:normal;font-variant:normal;font-weight:500;font-stretch:normal;font-size:12.7px;font-family:Ubuntu;-inkscape-font-specification:'Ubuntu Medium';fill:#1435ca;fill-opacity:1;stroke-width:0.264583">CSA</tspan></text>
    <text
       xml:space="preserve"
       style="font-style:normal;font-variant:normal;font-weight:normal;font-stretch:normal;font-size:8.46667px;line-height:1.25;font-family:Ubuntu;-inkscape-font-specification:Ubuntu;stroke-width:0.264583"
       x="146.06926"
       y="101.33756"
       id="text905-8"><tspan
         sodipodi:role="line"
         id="tspan903-3"
         x="146.06926"
         y="101.33756"
         style="font-style:normal;font-variant:normal;font-weight:normal;font-stretch:normal;font-size:7.76111px;font-family:Ubuntu;-inkscape-font-specification:Ubuntu;stroke-width:0.264583">&quot;Execution&quot; Paths</tspan></text>
    <path
       id="path3106-8"
       style="fill:none;stroke:#000000;stroke-width:0.5;stroke-linecap:butt;stroke-linejoin:miter;stroke-miterlimit:4;stroke-dasharray:none;stroke-opacity:1"
       d="m 139.33637,53.071061 c 0,0 4.08139,3.04497 9.28841,3.05466 m -9.28841,3.05466 c 0,0 4.08139,-3.04498 9.28841,-3.05466" />
    <path
       id="path3106-8-1"
       style="fill:none;stroke:#000000;stroke-width:0.5;stroke-linecap:butt;stroke-linejoin:miter;stroke-miterlimit:4;stroke-dasharray:none;stroke-opacity:1"
       d="m 138.88774,68.254258 c 0,0 4.08139,3.04497 9.28841,3.05466 m -9.28841,3.05466 c 0,0 4.08139,-3.04498 9.28841,-3.05466" />
    <path
       id="path3106-8-0"
       style="fill:none;stroke:#000000;stroke-width:0.5;stroke-linecap:butt;stroke-linejoin:miter;stroke-miterlimit:4;stroke-dasharray:none;stroke-opacity:1"
       d="m 138.07225,127.27501 c 0,0 4.08139,3.04497 9.28841,3.05466 m -9.28841,3.05466 c 0,0 4.08139,-3.04498 9.28841,-3.05466" />
    <path
       id="path3106-8-5"
       style="fill:none;stroke:#000000;stroke-width:0.5;stroke-linecap:butt;stroke-linejoin:miter;stroke-miterlimit:4;stroke-dasharray:none;stroke-opacity:1"
       d="m 136.8223,142.68247 c 0,0 4.08139,3.04497 9.28841,3.05466 m -9.28841,3.05466 c 0,0 4.08139,-3.04498 9.28841,-3.05466" />
  </g>
</svg>
